<?xml version="1.0" encoding="utf-8"?>
<!-- Generator: Adobe Illustrator 25.3.1, SVG Export Plug-In . SVG Version: 6.00 Build 0)  -->
<svg version="1.1" id="Capa_1" xmlns="http://www.w3.org/2000/svg" xmlns:xlink="http://www.w3.org/1999/xlink" x="0px" y="0px"
	 viewBox="0 0 300 162" style="enable-background:new 0 0 300 162;" xml:space="preserve">
<style type="text/css">
	.st0{fill:#4294CA;}
	.st1{fill-rule:evenodd;clip-rule:evenodd;fill:#4294CA;}
	.st2{fill-rule:evenodd;clip-rule:evenodd;fill:#4CA585;}
	.st3{fill-rule:evenodd;clip-rule:evenodd;fill:#3AB089;}
</style>
<g id="XMLID_1_">
	<g id="XMLID_4_">
		<g id="XMLID_6_">
			<g id="XMLID_13_">
				<g id="XMLID_58_">
					<path id="XMLID_82_" class="st0" d="M-225.6,65.6h3.2l-4.2,14.7h-3.4l-2.8-10.2l-2.9,10.2h-3.4l-4.2-14.7h3.1l2.8,11.3l3-11.3
						h3.3l2.8,11.2L-225.6,65.6z"/>
					<path id="XMLID_79_" class="st0" d="M-215.6,80.4c-1.7,0-3.1-0.6-4.1-1.6c-1.1-1.1-1.6-2.6-1.6-4.4c0-1.8,0.5-3.3,1.6-4.3
						c1.1-1.1,2.5-1.6,4.2-1.6s3.1,0.5,4.2,1.6c1.1,1.1,1.6,2.5,1.6,4.2c0,0.4,0,0.8-0.1,1.1h-8.5c0.1,0.8,0.4,1.4,0.8,1.8
						c0.5,0.5,1.1,0.7,1.9,0.7c1,0,1.8-0.4,2.3-1.3h3.2c-0.3,1.1-1,2-2,2.7C-213.1,80-214.3,80.4-215.6,80.4z M-213.7,71.6
						c-0.5-0.5-1.2-0.7-1.9-0.7c-0.7,0-1.4,0.2-1.9,0.7s-0.8,1.1-0.9,1.9h5.5C-212.9,72.7-213.2,72.1-213.7,71.6z"/>
					<path id="XMLID_76_" class="st0" d="M-202.5,80.4c-1.7,0-3.1-0.6-4.1-1.6c-1.1-1.1-1.6-2.6-1.6-4.4c0-1.8,0.5-3.3,1.6-4.3
						c1.1-1.1,2.5-1.6,4.2-1.6s3.1,0.5,4.2,1.6s1.6,2.5,1.6,4.2c0,0.4,0,0.8-0.1,1.1h-8.5c0.1,0.8,0.4,1.4,0.8,1.8
						c0.5,0.5,1.1,0.7,1.9,0.7c1,0,1.8-0.4,2.3-1.3h3.2c-0.3,1.1-1,2-1.9,2.7C-200,80-201.1,80.4-202.5,80.4z M-200.6,71.6
						c-0.5-0.5-1.2-0.7-1.9-0.7c-0.7,0-1.4,0.2-1.9,0.7s-0.8,1.1-0.9,1.9h5.5C-199.8,72.7-200.1,72.1-200.6,71.6z"/>
					<path id="XMLID_74_" class="st0" d="M-192.9,78.3c-1.4-1.4-2.1-3.1-2.1-5.3c0-2.1,0.7-3.9,2.1-5.3s3.2-2.1,5.2-2.1
						c1.5,0,2.8,0.3,4,1c1.2,0.7,2,1.6,2.6,2.9h-1.8c-0.4-0.9-1.1-1.5-1.9-2c-0.8-0.5-1.8-0.7-2.9-0.7c-1.7,0-3.1,0.6-4.2,1.7
						s-1.7,2.6-1.7,4.4s0.6,3.3,1.7,4.4s2.5,1.7,4.2,1.7c1.1,0,2-0.2,2.9-0.7s1.5-1.1,1.9-2h1.8c-0.6,1.3-1.5,2.3-2.6,2.9
						c-1.2,0.7-2.5,1-4,1C-189.8,80.4-191.5,79.7-192.9,78.3z"/>
					<path id="XMLID_71_" class="st0" d="M-173.1,80.4c-1.6,0-3-0.6-4-1.6s-1.5-2.5-1.5-4.3s0.6-3.2,1.6-4.3
						c1.1-1.1,2.5-1.6,4.1-1.6s3,0.6,4.1,1.6c1.1,1.1,1.6,2.5,1.6,4.3s-0.6,3.2-1.7,4.3C-170.1,79.9-171.4,80.4-173.1,80.4z
						 M-173.1,79.3c1.2,0,2.2-0.4,3.1-1.3c0.9-0.9,1.3-2,1.3-3.5s-0.4-2.6-1.2-3.5s-1.8-1.3-3-1.3s-2.2,0.4-3,1.3s-1.2,2-1.2,3.5
						s0.4,2.7,1.1,3.5C-175.3,78.8-174.3,79.3-173.1,79.3z"/>
					<path id="XMLID_69_" class="st0" d="M-163.3,68.7v1.9c0.8-1.4,2-2.1,3.8-2.1c0.9,0,1.7,0.2,2.4,0.6s1.3,1.1,1.6,1.9
						c0.4-0.8,1-1.4,1.7-1.9c0.7-0.4,1.6-0.7,2.5-0.7c1.3,0,2.3,0.4,3.2,1.2s1.3,2,1.3,3.6v6.8h-1.4v-6.6c0-1.3-0.3-2.2-0.9-2.9
						s-1.4-1-2.5-1s-1.9,0.3-2.5,1s-0.9,1.6-0.9,2.9v6.6h-1.4v-6.6c0-1.3-0.3-2.2-0.9-2.9c-0.6-0.7-1.4-1-2.5-1s-1.9,0.3-2.5,1
						s-0.9,1.6-0.9,2.9v6.6h-1.5V68.7H-163.3z"/>
					<path id="XMLID_66_" class="st0" d="M-137.7,68.5c1.6,0,2.9,0.5,4,1.6c1,1.1,1.6,2.5,1.6,4.2s-0.5,3.2-1.6,4.3
						c-1.1,1.1-2.4,1.7-4,1.7c-1,0-1.9-0.3-2.7-0.8c-0.8-0.5-1.4-1.2-1.8-2v7.9h-1.5V68.7h1.5v2.5c0.4-0.8,1-1.4,1.8-1.9
						C-139.7,68.8-138.8,68.5-137.7,68.5z M-137.9,79.2c1.2,0,2.2-0.4,3-1.3c0.8-0.9,1.2-2,1.2-3.4s-0.4-2.5-1.2-3.4
						c-0.8-0.8-1.8-1.2-3-1.2s-2.2,0.4-3,1.3s-1.2,2-1.2,3.4c0,1.4,0.4,2.5,1.2,3.4C-140.1,78.7-139.1,79.2-137.9,79.2z"/>
					<path id="XMLID_63_" class="st0" d="M-128.9,78.7c-1.1-1.1-1.6-2.6-1.6-4.3s0.5-3.2,1.6-4.2c1-1.1,2.4-1.6,4-1.6
						c1,0,1.9,0.2,2.7,0.8c0.8,0.5,1.4,1.2,1.8,1.9v-2.5h1.5v11.5h-1.5v-2.5c-0.4,0.8-1,1.4-1.8,2c-0.8,0.5-1.7,0.8-2.7,0.8
						C-126.5,80.4-127.8,79.9-128.9,78.7z M-121.7,77.9c0.8-0.9,1.2-2,1.2-3.4c0-1.4-0.4-2.5-1.2-3.4c-0.8-0.9-1.8-1.3-3-1.3
						s-2.2,0.4-3,1.2s-1.2,1.9-1.2,3.4c0,1.4,0.4,2.6,1.2,3.4s1.8,1.3,3,1.3C-123.5,79.2-122.5,78.7-121.7,77.9z"/>
					<path id="XMLID_61_" class="st0" d="M-114.3,68.7v1.9c0.8-1.4,2-2.1,3.8-2.1c1.3,0,2.3,0.4,3.2,1.2s1.3,2,1.3,3.6v6.8h-1.4
						v-6.6c0-1.3-0.3-2.2-0.9-2.9s-1.4-1-2.5-1s-1.9,0.3-2.5,1s-0.9,1.6-0.9,2.9v6.6h-1.5V68.7H-114.3z"/>
					<path id="XMLID_59_" class="st0" d="M-99.7,80.1l-4.6-11.3h1.6l3.8,9.8l3.8-9.8h1.5l-6.8,16.8h-1.5L-99.7,80.1z"/>
				</g>
				<g id="XMLID_14_">
					<path id="XMLID_56_" class="st0" d="M-210.7,91.4c0-0.2,0.2-0.4,0.4-0.4c0.2,0,0.4,0.2,0.4,0.4V94h3.9v-2.6
						c0-0.2,0.2-0.4,0.4-0.4c0.2,0,0.4,0.2,0.4,0.4v6c0,0.2-0.2,0.4-0.4,0.4c-0.2,0-0.4-0.2-0.4-0.4v-2.7h-3.9v2.7
						c0,0.2-0.2,0.4-0.4,0.4c-0.2,0-0.4-0.2-0.4-0.4V91.4z"/>
					<path id="XMLID_53_" class="st0" d="M-201.3,97.9c-1.4,0-2.5-1-2.5-2.6v0c0-1.4,1-2.6,2.4-2.6c1.5,0,2.3,1.2,2.3,2.5
						c0,0.2-0.2,0.4-0.3,0.4h-3.6c0.1,1.1,0.9,1.7,1.7,1.7c0.6,0,1.1-0.2,1.4-0.6c0.1-0.1,0.1-0.1,0.2-0.1c0.2,0,0.3,0.1,0.3,0.3
						c0,0.1,0,0.2-0.1,0.2C-199.9,97.6-200.5,97.9-201.3,97.9z M-199.9,95c-0.1-0.9-0.6-1.7-1.6-1.7c-0.9,0-1.5,0.7-1.6,1.7H-199.9z
						"/>
					<path id="XMLID_50_" class="st0" d="M-198.2,96.3L-198.2,96.3c0-1.1,0.9-1.6,2.1-1.6c0.6,0,1.1,0.1,1.5,0.2v-0.2
						c0-0.9-0.6-1.4-1.5-1.4c-0.5,0-0.9,0.1-1.3,0.3c-0.1,0-0.1,0-0.1,0c-0.2,0-0.3-0.1-0.3-0.3c0-0.1,0.1-0.3,0.2-0.3
						c0.5-0.2,1-0.3,1.6-0.3c0.7,0,1.2,0.2,1.6,0.6c0.3,0.3,0.5,0.8,0.5,1.4v2.7c0,0.2-0.1,0.4-0.4,0.4c-0.2,0-0.4-0.1-0.4-0.4V97
						c-0.4,0.4-0.9,0.9-1.8,0.9C-197.3,97.9-198.2,97.4-198.2,96.3z M-194.6,95.9v-0.5c-0.4-0.1-0.9-0.2-1.5-0.2
						c-0.9,0-1.4,0.4-1.4,1v0c0,0.6,0.6,1,1.2,1C-195.3,97.3-194.6,96.7-194.6,95.9z"/>
					<path id="XMLID_48_" class="st0" d="M-192.2,91.1c0-0.2,0.2-0.4,0.4-0.4c0.2,0,0.4,0.2,0.4,0.4v6.4c0,0.2-0.1,0.4-0.4,0.4
						s-0.4-0.2-0.4-0.4V91.1z"/>
					<path id="XMLID_46_" class="st0" d="M-189.5,96.5v-3h-0.4c-0.2,0-0.3-0.1-0.3-0.3c0-0.2,0.1-0.3,0.3-0.3h0.4v-1.2
						c0-0.2,0.1-0.4,0.4-0.4c0.2,0,0.4,0.2,0.4,0.4v1.2h1.3c0.2,0,0.3,0.1,0.3,0.3c0,0.2-0.1,0.3-0.3,0.3h-1.3v2.9
						c0,0.6,0.3,0.8,0.8,0.8c0.3,0,0.4-0.1,0.4-0.1c0.2,0,0.3,0.1,0.3,0.3c0,0.1-0.1,0.2-0.2,0.3c-0.2,0.1-0.4,0.1-0.7,0.1
						C-188.9,97.9-189.5,97.5-189.5,96.5z"/>
					<path id="XMLID_44_" class="st0" d="M-185.9,91.1c0-0.2,0.2-0.4,0.4-0.4c0.2,0,0.4,0.2,0.4,0.4v2.6c0.3-0.5,0.8-1,1.7-1
						c1.2,0,1.9,0.8,1.9,2v2.8c0,0.2-0.2,0.4-0.4,0.4c-0.2,0-0.4-0.2-0.4-0.4v-2.6c0-0.9-0.5-1.5-1.4-1.5c-0.9,0-1.5,0.6-1.5,1.6
						v2.5c0,0.2-0.1,0.4-0.4,0.4s-0.4-0.2-0.4-0.4L-185.9,91.1L-185.9,91.1z"/>
					<path id="XMLID_42_" class="st0" d="M-180.3,95.3L-180.3,95.3c0-1.4,1.1-2.6,2.5-2.6c0.8,0,1.4,0.3,1.8,0.7
						c0.1,0.1,0.1,0.1,0.1,0.3c0,0.2-0.2,0.4-0.4,0.4c-0.1,0-0.2,0-0.2-0.1c-0.4-0.3-0.8-0.6-1.4-0.6c-1,0-1.8,0.9-1.8,1.9v0
						c0,1.1,0.8,1.9,1.8,1.9c0.6,0,1-0.3,1.4-0.6c0.1-0.1,0.1-0.1,0.2-0.1c0.2,0,0.3,0.2,0.3,0.3c0,0.1,0,0.2-0.1,0.2
						c-0.5,0.5-1,0.8-1.9,0.8C-179.2,97.9-180.3,96.7-180.3,95.3z"/>
					<path id="XMLID_39_" class="st0" d="M-174.9,96.3L-174.9,96.3c0-1.1,0.9-1.6,2.1-1.6c0.6,0,1.1,0.1,1.5,0.2v-0.2
						c0-0.9-0.6-1.4-1.5-1.4c-0.5,0-0.9,0.1-1.3,0.3c-0.1,0-0.1,0-0.1,0c-0.2,0-0.3-0.1-0.3-0.3c0-0.1,0.1-0.3,0.2-0.3
						c0.5-0.2,1-0.3,1.6-0.3c0.7,0,1.2,0.2,1.6,0.6c0.3,0.3,0.5,0.8,0.5,1.4v2.7c0,0.2-0.1,0.4-0.4,0.4s-0.4-0.1-0.4-0.4V97
						c-0.4,0.4-0.9,0.9-1.8,0.9C-173.9,97.9-174.9,97.4-174.9,96.3z M-171.2,95.9v-0.5c-0.4-0.1-0.9-0.2-1.5-0.2
						c-0.9,0-1.4,0.4-1.4,1v0c0,0.6,0.6,1,1.2,1C-172,97.3-171.2,96.7-171.2,95.9z"/>
					<path id="XMLID_37_" class="st0" d="M-168.9,93.1c0-0.2,0.2-0.4,0.4-0.4c0.2,0,0.4,0.2,0.4,0.4v0.9c0.4-0.8,1.1-1.3,1.7-1.3
						c0.2,0,0.4,0.2,0.4,0.4c0,0.2-0.1,0.3-0.3,0.4c-1,0.1-1.7,0.8-1.7,2.3v1.7c0,0.2-0.1,0.4-0.4,0.4c-0.2,0-0.4-0.2-0.4-0.4
						L-168.9,93.1L-168.9,93.1z"/>
					<path id="XMLID_34_" class="st0" d="M-163.1,97.9c-1.4,0-2.5-1-2.5-2.6v0c0-1.4,1-2.6,2.4-2.6c1.5,0,2.3,1.2,2.3,2.5
						c0,0.2-0.2,0.4-0.3,0.4h-3.6c0.1,1.1,0.9,1.7,1.7,1.7c0.6,0,1.1-0.2,1.4-0.6c0.1-0.1,0.1-0.1,0.2-0.1c0.2,0,0.3,0.1,0.3,0.3
						c0,0.1,0,0.2-0.1,0.2C-161.7,97.6-162.3,97.9-163.1,97.9z M-161.6,95c-0.1-0.9-0.6-1.7-1.6-1.7c-0.9,0-1.5,0.7-1.6,1.7H-161.6z
						"/>
					<path id="XMLID_31_" class="st0" d="M-156.6,91.4c0-0.2,0.2-0.4,0.4-0.4h2.1c1.5,0,2.5,0.8,2.5,2.1v0c0,1.4-1.2,2.2-2.6,2.2
						h-1.6v2c0,0.2-0.2,0.4-0.4,0.4c-0.2,0-0.4-0.2-0.4-0.4L-156.6,91.4L-156.6,91.4z M-154.2,94.7c1.1,0,1.8-0.6,1.8-1.5v0
						c0-1-0.7-1.5-1.8-1.5h-1.7v2.9L-154.2,94.7L-154.2,94.7z"/>
					<path id="XMLID_29_" class="st0" d="M-150.3,91.1c0-0.2,0.2-0.4,0.4-0.4c0.2,0,0.4,0.2,0.4,0.4v6.4c0,0.2-0.1,0.4-0.4,0.4
						s-0.4-0.2-0.4-0.4V91.1z"/>
					<path id="XMLID_26_" class="st0" d="M-148.2,96.3L-148.2,96.3c0-1.1,0.9-1.6,2.1-1.6c0.6,0,1.1,0.1,1.5,0.2v-0.2
						c0-0.9-0.6-1.4-1.5-1.4c-0.5,0-0.9,0.1-1.3,0.3c-0.1,0-0.1,0-0.1,0c-0.2,0-0.3-0.1-0.3-0.3c0-0.1,0.1-0.3,0.2-0.3
						c0.5-0.2,1-0.3,1.6-0.3c0.7,0,1.2,0.2,1.6,0.6c0.3,0.3,0.5,0.8,0.5,1.4v2.7c0,0.2-0.1,0.4-0.4,0.4c-0.2,0-0.4-0.1-0.4-0.4V97
						c-0.4,0.4-0.9,0.9-1.8,0.9C-147.2,97.9-148.2,97.4-148.2,96.3z M-144.5,95.9v-0.5c-0.4-0.1-0.9-0.2-1.5-0.2
						c-0.9,0-1.4,0.4-1.4,1v0c0,0.6,0.6,1,1.2,1C-145.3,97.3-144.5,96.7-144.5,95.9z"/>
					<path id="XMLID_24_" class="st0" d="M-142.1,96.5v-3h-0.4c-0.2,0-0.3-0.1-0.3-0.3c0-0.2,0.1-0.3,0.3-0.3h0.4v-1.2
						c0-0.2,0.1-0.4,0.4-0.4c0.2,0,0.4,0.2,0.4,0.4v1.2h1.3c0.2,0,0.3,0.1,0.3,0.3c0,0.2-0.1,0.3-0.3,0.3h-1.3v2.9
						c0,0.6,0.3,0.8,0.8,0.8c0.3,0,0.4-0.1,0.4-0.1c0.2,0,0.3,0.1,0.3,0.3c0,0.1-0.1,0.2-0.2,0.3c-0.2,0.1-0.4,0.1-0.7,0.1
						C-141.4,97.9-142.1,97.5-142.1,96.5z"/>
					<path id="XMLID_22_" class="st0" d="M-138.1,93.5h-0.4c-0.2,0-0.3-0.1-0.3-0.3c0-0.2,0.1-0.3,0.3-0.3h0.4v-0.4
						c0-0.6,0.1-1,0.4-1.3c0.2-0.2,0.6-0.4,1.1-0.4c0.2,0,0.4,0,0.6,0.1c0.1,0,0.3,0.1,0.3,0.3c0,0.2-0.2,0.3-0.4,0.3
						c-0.1,0-0.3-0.1-0.4-0.1c-0.6,0-0.9,0.4-0.9,1.1v0.4h1.3c0.2,0,0.3,0.1,0.3,0.3c0,0.2-0.1,0.3-0.3,0.3h-1.3v4
						c0,0.2-0.1,0.4-0.4,0.4s-0.4-0.2-0.4-0.4L-138.1,93.5L-138.1,93.5z"/>
					<path id="XMLID_19_" class="st0" d="M-135.3,95.3L-135.3,95.3c0-1.4,1.1-2.6,2.6-2.6c1.5,0,2.6,1.2,2.6,2.6v0
						c0,1.4-1.1,2.6-2.6,2.6C-134.2,97.9-135.3,96.7-135.3,95.3z M-130.9,95.3L-130.9,95.3c0-1.1-0.8-2-1.8-2
						c-1.1,0-1.8,0.9-1.8,1.9v0c0,1.1,0.8,1.9,1.8,1.9C-131.6,97.2-130.9,96.4-130.9,95.3z"/>
					<path id="XMLID_17_" class="st0" d="M-128.8,93.1c0-0.2,0.2-0.4,0.4-0.4c0.2,0,0.4,0.2,0.4,0.4v0.9c0.4-0.8,1.1-1.3,1.7-1.3
						c0.2,0,0.4,0.2,0.4,0.4c0,0.2-0.1,0.3-0.3,0.4c-1,0.1-1.7,0.8-1.7,2.3v1.7c0,0.2-0.1,0.4-0.4,0.4s-0.4-0.2-0.4-0.4L-128.8,93.1
						L-128.8,93.1z"/>
					<path id="XMLID_15_" class="st0" d="M-124.9,93.1c0-0.2,0.2-0.4,0.4-0.4c0.2,0,0.4,0.2,0.4,0.4v0.5c0.3-0.5,0.8-0.9,1.6-0.9
						c0.8,0,1.3,0.4,1.6,1c0.3-0.6,0.9-1,1.7-1c1.1,0,1.8,0.8,1.8,2v2.7c0,0.2-0.2,0.4-0.4,0.4c-0.2,0-0.4-0.2-0.4-0.4v-2.6
						c0-1-0.5-1.5-1.3-1.5c-0.8,0-1.4,0.6-1.4,1.5v2.5c0,0.2-0.2,0.4-0.4,0.4c-0.2,0-0.4-0.2-0.4-0.4v-2.6c0-0.9-0.5-1.5-1.3-1.5
						s-1.4,0.6-1.4,1.6v2.5c0,0.2-0.2,0.4-0.4,0.4s-0.4-0.2-0.4-0.4L-124.9,93.1L-124.9,93.1z"/>
				</g>
			</g>
			<g id="XMLID_7_">
				<path id="XMLID_8_" class="st0" d="M-90,68.2c0.5-0.5,1.2-0.8,2-0.8c0.8,0,1.5,0.3,2,0.8c0.5,0.5,0.8,1.2,0.8,2
					c0,0.8-0.3,1.5-0.8,2c-0.5,0.5-1.2,0.8-2,0.8c-0.8,0-1.5-0.3-2-0.8c-0.5-0.5-0.8-1.2-0.8-2C-90.8,69.4-90.5,68.7-90,68.2z
					 M-89.8,72c0.4,0.5,1,0.7,1.8,0.7c0.8,0,1.3-0.2,1.8-0.7c0.4-0.5,0.7-1.1,0.7-1.8s-0.2-1.4-0.7-1.8c-0.4-0.4-1-0.7-1.8-0.7
					c-0.7,0-1.3,0.2-1.8,0.7c-0.4,0.5-0.7,1.1-0.7,1.8C-90.4,71-90.2,71.6-89.8,72z M-89.1,68.3h1.2c0.4,0,0.7,0.1,0.9,0.3
					c0.2,0.2,0.3,0.4,0.3,0.7c0,0.3-0.1,0.5-0.2,0.7c-0.2,0.2-0.4,0.3-0.7,0.4l1,1.5h-0.6l-1-1.5h-0.5V72h-0.5L-89.1,68.3
					L-89.1,68.3z M-88.7,68.7v1.4h0.7c0.5,0,0.8-0.2,0.8-0.7s-0.3-0.7-0.8-0.7L-88.7,68.7L-88.7,68.7z"/>
			</g>
		</g>
		<rect id="XMLID_5_" x="-257.7" y="65.6" class="st0" width="0.9" height="31.3"/>
	</g>
	<g id="XMLID_2_">
		<path id="XMLID_3_" class="st1" d="M-298.9,77.1c-2.1-2.9-4.1-6-6.2-9c-2.3-3.3-4.8-5.1-7.4-5.8c-0.8-0.2-1.6-0.3-2.4-0.3
			s-1.6,0.1-2.4,0.3c-2.6,0.7-5.1,2.5-7.4,5.8c-2.1,2.9-4.1,6-6.2,9c-4.2,5.8-8.5,11.5-16.4,10c0.5,0.6,0.7,1,0.9,1.2
			c7.7,10.9,14,13.9,22.8,1.9c3-4,5.8-8.1,8.7-12.1c2.9,4.1,5.8,8.1,8.7,12.1c8.8,11.9,15.1,9,22.8-1.9c0.2-0.2,0.4-0.6,0.9-1.2
			C-290.4,88.6-294.7,83-298.9,77.1z"/>
		<path class="st2" d="M-348.3,85.8c5.9,1.2,9.7-1,13.1-4.9l-0.2-0.2c-4-5.6-5.2-8-9.6-13c-4.8-5.4-10.7-4.8-15.8,0.7
			c2.1,3.5,7.4,10,9.6,13.5L-348.3,85.8z"/>
		<path class="st2" d="M-281.6,85.8c-5.9,1.2-9.7-1-13.1-4.9l0.2-0.2c4-5.6,5.2-8,9.6-13c4.8-5.4,10.7-4.8,15.9,0.7
			c-2.1,3.5-7.4,10-9.6,13.5L-281.6,85.8z"/>
	</g>
</g>
<g id="XMLID_84_">
	<g id="XMLID_88_">
		<path class="st1" d="M194.7,44.2c-5.9-8.2-11.4-16.7-17.2-24.9C171,10.1,164,5.1,156.8,3c-2.3-0.7-4.4-0.9-6.6-0.9
			c-2.2,0-4.4,0.3-6.6,0.9c-7.2,2.1-14.1,7.1-20.6,16.2c-5.8,8.2-11.4,16.7-17.2,24.9C94.1,60.4,82.1,76.2,60.1,72
			c1.3,1.8,1.9,2.8,2.4,3.5c21.3,30.5,38.9,38.7,63.5,5.4c8.2-11.1,16.2-22.4,24.2-33.8c8,11.4,16,22.7,24.2,33.8
			c24.6,33.3,42.1,25.1,63.5-5.4c0.4-0.6,1.1-1.7,2.4-3.5C218.3,76.1,206.3,60.4,194.7,44.2z"/>
		<path class="st3" d="M56.6,67.1c16.4,3.5,27-2.9,36.5-13.8c0,0-0.7-0.5-0.6-0.6C81.3,37.2,78,30.5,65.9,16.7
			C52.6,1.7,36,3.3,21.8,18.6c5.8,9.7,20.5,27.9,26.6,37.6L56.6,67.1z"/>
		<path class="st3" d="M243.4,67.1c-16.4,3.5-27-2.9-36.5-13.8c0,0,0.6-0.5,0.6-0.6c11.2-15.6,14.4-22.3,26.6-36.1
			c13.2-15,29.9-13.5,44.1,1.9c-5.8,9.7-20.5,27.9-26.6,37.6L243.4,67.1z"/>
	</g>
	<g>
		<g id="XMLID_86_">
			<g id="XMLID_87_">
				<path class="st0" d="M42.2,121.1H48L40.2,148h-6.2l-5.2-18.8L23.5,148h-6.2l-7.6-26.9h5.8l5.2,20.8l5.4-20.8h6.1l5.1,20.6
					L42.2,121.1z"/>
				<path class="st0" d="M60.5,148.3c-3.1,0-5.7-1-7.6-3c-2-2-2.9-4.7-2.9-8c0-3.3,1-6,3-8c2-2,4.5-3,7.6-3c3.1,0,5.7,1,7.7,2.9
					c2,1.9,3,4.5,3,7.8c0,0.8-0.1,1.4-0.2,2.1H55.5c0.1,1.4,0.6,2.5,1.5,3.4s2,1.3,3.4,1.3c1.9,0,3.3-0.8,4.2-2.3h5.9
					c-0.6,2-1.8,3.7-3.6,5C65.1,147.7,63,148.3,60.5,148.3z M64,132.2c-1-0.9-2.1-1.3-3.5-1.3s-2.5,0.4-3.4,1.3
					c-0.9,0.9-1.5,2-1.6,3.4h10.1C65.5,134.2,65,133,64,132.2z"/>
				<path class="st0" d="M84.5,148.3c-3.1,0-5.7-1-7.6-3s-2.9-4.7-2.9-8s1-6,2.9-8c2-2,4.5-3,7.6-3c3.1,0,5.7,1,7.7,2.9
					c2,1.9,3,4.5,3,7.8c0,0.8-0.1,1.4-0.2,2.1H79.6c0.1,1.4,0.6,2.5,1.5,3.4s2,1.3,3.4,1.3c1.9,0,3.3-0.8,4.2-2.3h5.9
					c-0.6,2-1.8,3.7-3.6,5C89.2,147.7,87,148.3,84.5,148.3z M88.1,132.2c-1-0.9-2.1-1.3-3.5-1.3c-1.4,0-2.5,0.4-3.4,1.3
					c-0.9,0.9-1.5,2-1.6,3.4h10.1C89.6,134.2,89.1,133,88.1,132.2z"/>
				<path class="st0" d="M102.1,144.4c-2.6-2.6-3.9-5.8-3.9-9.7c0-3.9,1.3-7.2,3.9-9.7c2.6-2.6,5.8-3.8,9.6-3.8
					c2.7,0,5.2,0.6,7.3,1.9c2.1,1.2,3.7,3,4.8,5.4h-3.3c-0.8-1.6-2-2.8-3.6-3.6c-1.6-0.9-3.3-1.3-5.2-1.3c-3.1,0-5.7,1-7.7,3.1
					s-3.1,4.8-3.1,8.1s1,6.1,3.1,8.1c2,2.1,4.6,3.1,7.7,3.1c2,0,3.7-0.4,5.2-1.3c1.5-0.9,2.7-2.1,3.6-3.6h3.3
					c-1.1,2.4-2.7,4.2-4.8,5.4c-2.1,1.2-4.6,1.9-7.3,1.9C107.9,148.2,104.7,146.9,102.1,144.4z"/>
				<path class="st0" d="M138.5,148.4c-3,0-5.5-1-7.4-3c-1.9-2-2.8-4.6-2.8-7.9c0-3.2,1-5.9,3-7.9s4.5-3,7.5-3c3,0,5.5,1,7.5,3
					s3,4.6,3,7.9s-1.1,5.9-3.2,7.9C144.1,147.4,141.5,148.4,138.5,148.4z M138.5,146.2c2.2,0,4.1-0.8,5.7-2.4
					c1.6-1.6,2.4-3.7,2.4-6.4c0-2.7-0.8-4.8-2.3-6.4c-1.5-1.6-3.4-2.3-5.6-2.3s-4,0.8-5.5,2.3c-1.5,1.5-2.2,3.7-2.2,6.4
					s0.7,4.9,2.1,6.4C134.5,145.4,136.3,146.2,138.5,146.2z"/>
				<path class="st0" d="M156.5,126.9v3.4c1.4-2.5,3.7-3.8,7-3.8c1.7,0,3.2,0.4,4.5,1.2c1.3,0.8,2.3,2,2.9,3.5
					c0.7-1.5,1.8-2.6,3.1-3.5c1.4-0.8,2.9-1.2,4.6-1.2c2.3,0,4.3,0.8,5.9,2.3s2.4,3.7,2.4,6.6V148h-2.7v-12c0-2.3-0.6-4.1-1.7-5.3
					c-1.1-1.2-2.6-1.8-4.6-1.8s-3.5,0.6-4.6,1.8c-1.1,1.2-1.7,3-1.7,5.3v12H169v-12c0-2.3-0.6-4.1-1.7-5.3c-1.1-1.2-2.6-1.8-4.6-1.8
					s-3.5,0.6-4.6,1.8s-1.7,3-1.7,5.3v12h-2.7v-21.1L156.5,126.9L156.5,126.9z"/>
				<path class="st0" d="M203.4,126.5c2.9,0,5.4,1,7.3,2.9s2.9,4.6,2.9,7.8c0,3.2-1,5.9-2.9,8c-1.9,2.1-4.4,3.1-7.3,3.1
					c-1.9,0-3.6-0.5-5-1.4c-1.4-0.9-2.5-2.1-3.2-3.6v14.6h-2.7v-31h2.7v4.6c0.7-1.5,1.8-2.7,3.2-3.6
					C199.8,127,201.5,126.5,203.4,126.5z M203,146c2.2,0,4-0.8,5.5-2.4c1.5-1.6,2.3-3.7,2.3-6.3c0-2.6-0.8-4.6-2.3-6.1
					c-1.5-1.5-3.4-2.3-5.5-2.3c-2.2,0-4,0.8-5.5,2.4c-1.5,1.6-2.3,3.7-2.3,6.2c0,2.6,0.8,4.6,2.3,6.2C199,145.2,200.8,146,203,146z"
					/>
				<path class="st0" d="M219.6,145.2c-1.9-2.1-2.9-4.7-2.9-8s1-5.8,2.9-7.8c1.9-2,4.4-2.9,7.3-2.9c1.9,0,3.6,0.5,5,1.4
					c1.4,0.9,2.5,2.1,3.2,3.6v-4.6h2.7V148h-2.7v-4.6c-0.7,1.5-1.8,2.7-3.2,3.6s-3.1,1.4-5,1.4C223.9,148.4,221.5,147.3,219.6,145.2
					z M232.8,143.7c1.5-1.6,2.3-3.7,2.3-6.2c0-2.6-0.8-4.6-2.3-6.2s-3.4-2.4-5.5-2.4s-4,0.8-5.5,2.3c-1.5,1.5-2.3,3.6-2.3,6.1
					c0,2.6,0.8,4.7,2.3,6.3c1.5,1.6,3.4,2.4,5.5,2.4C229.4,146,231.2,145.2,232.8,143.7z"/>
				<path class="st0" d="M246.2,126.9v3.4c1.4-2.5,3.7-3.8,7-3.8c2.3,0,4.3,0.8,5.9,2.3c1.6,1.5,2.4,3.7,2.4,6.6v12.5h-2.7v-12
					c0-2.3-0.6-4.1-1.7-5.3c-1.1-1.2-2.6-1.8-4.6-1.8s-3.5,0.6-4.6,1.8c-1.1,1.2-1.7,3-1.7,5.3v12h-2.7v-21.1L246.2,126.9z"/>
				<path class="st0" d="M271.5,147.6l-8.4-20.8h2.9l7,17.9l6.9-17.9h2.7l-12.5,30.9h-2.7L271.5,147.6z"/>
			</g>
		</g>
		<g id="XMLID_85_">
			<path class="st0" d="M284.6,127.8c0.6-0.6,1.4-0.9,2.4-0.9c1,0,1.8,0.3,2.4,0.9c0.6,0.6,0.9,1.4,0.9,2.4c0,1-0.3,1.8-0.9,2.4
				c-0.6,0.6-1.4,0.9-2.4,0.9c-1,0-1.8-0.3-2.4-0.9c-0.6-0.6-0.9-1.4-0.9-2.4C283.7,129.2,284,128.4,284.6,127.8z M284.9,132.4
				c0.5,0.6,1.2,0.8,2.1,0.8c0.9,0,1.6-0.3,2.1-0.8c0.5-0.6,0.8-1.3,0.8-2.2c0-0.9-0.3-1.6-0.8-2.2c-0.5-0.5-1.2-0.8-2.1-0.8
				c-0.9,0-1.6,0.3-2.1,0.8c-0.5,0.5-0.8,1.3-0.8,2.2C284.1,131.1,284.4,131.9,284.9,132.4z M285.6,128h1.4c0.5,0,0.9,0.1,1.1,0.4
				c0.3,0.2,0.4,0.5,0.4,0.9c0,0.3-0.1,0.6-0.3,0.9s-0.5,0.4-0.9,0.4l1.2,1.8H288l-1.1-1.8h-0.6v1.8h-0.6L285.6,128L285.6,128z
				 M286.2,128.4v1.7h0.9c0.6,0,0.9-0.3,0.9-0.8s-0.3-0.8-0.9-0.8H286.2z"/>
		</g>
	</g>
</g>
</svg>
