<svg id="Capa_1" data-name="Capa 1" xmlns="http://www.w3.org/2000/svg" viewBox="0 0 300 162"><defs><style>.cls-1,.cls-2{fill:#4294ca;}.cls-2,.cls-3{fill-rule:evenodd;}.cls-3{fill:#4ca585;}</style></defs><path class="cls-1" d="M149.1,65.55h3.17L148,80.23h-3.36L141.82,70,138.9,80.23h-3.37l-4.16-14.68h3.15l2.82,11.33,3-11.33h3.34l2.8,11.23Z"/><path class="cls-1" d="M159,80.39a5.49,5.49,0,0,1-4.14-1.65,6,6,0,0,1-1.6-4.36A5.9,5.9,0,0,1,154.91,70a5.57,5.57,0,0,1,4.16-1.63,5.81,5.81,0,0,1,4.2,1.59,5.64,5.64,0,0,1,1.64,4.24,8,8,0,0,1-.08,1.14h-8.5a2.76,2.76,0,0,0,.84,1.83,2.62,2.62,0,0,0,1.87.69,2.45,2.45,0,0,0,2.27-1.26h3.2a5.11,5.11,0,0,1-2,2.71A5.86,5.86,0,0,1,159,80.39Zm2-8.79a2.8,2.8,0,0,0-1.9-.69,2.64,2.64,0,0,0-1.86.69,2.88,2.88,0,0,0-.89,1.85h5.51A2.61,2.61,0,0,0,161,71.6Z"/><path class="cls-1" d="M172.16,80.39A5.49,5.49,0,0,1,168,78.74a6,6,0,0,1-1.6-4.36A5.9,5.9,0,0,1,168,70a5.57,5.57,0,0,1,4.16-1.63A5.77,5.77,0,0,1,176.38,70,5.64,5.64,0,0,1,178,74.24a8,8,0,0,1-.08,1.14h-8.49a2.76,2.76,0,0,0,.84,1.83,2.62,2.62,0,0,0,1.87.69,2.45,2.45,0,0,0,2.27-1.26h3.2a5.14,5.14,0,0,1-1.95,2.71A5.91,5.91,0,0,1,172.16,80.39Zm2-8.79a2.8,2.8,0,0,0-1.9-.69,2.64,2.64,0,0,0-1.86.69,2.93,2.93,0,0,0-.89,1.85H175A2.61,2.61,0,0,0,174.11,71.6Z"/><path class="cls-1" d="M181.76,78.27a7.67,7.67,0,0,1,0-10.61A7.22,7.22,0,0,1,187,65.57a7.72,7.72,0,0,1,4,1,6.32,6.32,0,0,1,2.62,2.94H191.8a4.75,4.75,0,0,0-1.94-2,5.87,5.87,0,0,0-2.86-.69,5.67,5.67,0,0,0-4.21,1.68,6.77,6.77,0,0,0,0,8.88A5.67,5.67,0,0,0,187,79.09a5.74,5.74,0,0,0,2.86-.7,4.83,4.83,0,0,0,1.94-2h1.79A6.32,6.32,0,0,1,191,79.34a7.78,7.78,0,0,1-4,1A7.24,7.24,0,0,1,181.76,78.27Z"/><path class="cls-1" d="M201.59,80.44a5.28,5.28,0,0,1-4-1.64A6,6,0,0,1,196,74.5a5.87,5.87,0,0,1,1.64-4.31,5.92,5.92,0,0,1,8.2,0,5.84,5.84,0,0,1,1.64,4.29,5.71,5.71,0,0,1-1.73,4.3A5.82,5.82,0,0,1,201.59,80.44Zm0-1.18A4.28,4.28,0,0,0,204.67,78a4.69,4.69,0,0,0,1.3-3.5A4.77,4.77,0,0,0,204.73,71a4.07,4.07,0,0,0-3-1.27,4,4,0,0,0-3,1.26,4.88,4.88,0,0,0-1.2,3.51A5,5,0,0,0,198.65,78,3.79,3.79,0,0,0,201.58,79.26Z"/><path class="cls-1" d="M211.4,68.74v1.87a4,4,0,0,1,3.81-2.08,4.7,4.7,0,0,1,2.45.65,3.9,3.9,0,0,1,1.61,1.91A4.43,4.43,0,0,1,221,69.2a4.76,4.76,0,0,1,2.53-.67,4.42,4.42,0,0,1,3.2,1.25A4.79,4.79,0,0,1,228,73.39v6.83h-1.45V73.66a4.1,4.1,0,0,0-.91-2.88,3.65,3.65,0,0,0-5,0,4.1,4.1,0,0,0-.91,2.88v6.56h-1.45V73.66a4.05,4.05,0,0,0-.92-2.88,3.65,3.65,0,0,0-5,0,4.1,4.1,0,0,0-.92,2.88v6.56h-1.47V68.74Z"/><path class="cls-1" d="M237,68.53a5.36,5.36,0,0,1,4,1.61,5.85,5.85,0,0,1,1.57,4.25A6.13,6.13,0,0,1,241,78.73a5.17,5.17,0,0,1-4,1.7,4.88,4.88,0,0,1-2.73-.77,4.73,4.73,0,0,1-1.75-2v8H231V68.73h1.47v2.5a4.62,4.62,0,0,1,1.75-2A4.89,4.89,0,0,1,237,68.53Zm-.23,10.64a4,4,0,0,0,3-1.34A4.86,4.86,0,0,0,241,74.38,4.5,4.5,0,0,0,239.78,71a4.1,4.1,0,0,0-3-1.24,4,4,0,0,0-3,1.29,5.28,5.28,0,0,0,0,6.8A4,4,0,0,0,236.75,79.17Z"/><path class="cls-1" d="M245.79,78.73a6.15,6.15,0,0,1-1.58-4.34,5.81,5.81,0,0,1,1.57-4.25,5.32,5.32,0,0,1,4-1.61,4.87,4.87,0,0,1,2.73.76,4.75,4.75,0,0,1,1.75,1.95v-2.5h1.47V80.22h-1.47V77.7a4.79,4.79,0,0,1-1.75,2,4.93,4.93,0,0,1-2.73.77A5.16,5.16,0,0,1,245.79,78.73Zm7.2-.85a5.25,5.25,0,0,0,0-6.8,4,4,0,0,0-3-1.29A4.09,4.09,0,0,0,247,71a4.53,4.53,0,0,0-1.24,3.35A4.86,4.86,0,0,0,247,77.83a4,4,0,0,0,3,1.34A4.06,4.06,0,0,0,253,77.88Z"/><path class="cls-1" d="M260.34,68.74v1.87a4,4,0,0,1,3.81-2.08,4.42,4.42,0,0,1,3.2,1.25,4.79,4.79,0,0,1,1.28,3.61v6.83h-1.45V73.66a4.1,4.1,0,0,0-.91-2.88,3.65,3.65,0,0,0-5,0,4.1,4.1,0,0,0-.91,2.88v6.56h-1.47V68.74Z"/><path class="cls-1" d="M275,80.06l-4.56-11.31H272l3.79,9.76,3.78-9.76H281l-6.81,16.82h-1.49Z"/><path class="cls-1" d="M164,91.4a.38.38,0,1,1,.75,0v2.65h3.87V91.4a.38.38,0,1,1,.75,0v6a.38.38,0,1,1-.75,0V94.76h-3.87v2.68a.38.38,0,1,1-.75,0Z"/><path class="cls-1" d="M173.36,97.89a2.46,2.46,0,0,1-2.47-2.58v0a2.45,2.45,0,0,1,2.38-2.58,2.33,2.33,0,0,1,2.3,2.51.35.35,0,0,1-.34.35h-3.58a1.73,1.73,0,0,0,1.74,1.68,2.07,2.07,0,0,0,1.43-.57.31.31,0,0,1,.21-.09.32.32,0,0,1,.33.32.31.31,0,0,1-.12.24A2.61,2.61,0,0,1,173.36,97.89ZM174.82,95a1.63,1.63,0,0,0-1.58-1.69A1.71,1.71,0,0,0,171.63,95Z"/><path class="cls-1" d="M176.49,96.33v0c0-1,.86-1.6,2.12-1.6a5.41,5.41,0,0,1,1.52.21v-.17c0-.89-.55-1.35-1.48-1.35a3.1,3.1,0,0,0-1.28.28l-.13,0a.33.33,0,0,1-.33-.32.36.36,0,0,1,.2-.31,3.94,3.94,0,0,1,1.62-.34,2.14,2.14,0,0,1,1.6.55,1.94,1.94,0,0,1,.51,1.45v2.71a.34.34,0,0,1-.35.36.34.34,0,0,1-.35-.35V97a2.18,2.18,0,0,1-1.79.85A1.65,1.65,0,0,1,176.49,96.33Zm3.65-.38v-.48a5,5,0,0,0-1.46-.21c-.93,0-1.45.4-1.45,1v0c0,.62.58,1,1.25,1A1.5,1.5,0,0,0,180.14,96Z"/><path class="cls-1" d="M182.48,91.1a.37.37,0,1,1,.73,0v6.35a.35.35,0,0,1-.36.37.36.36,0,0,1-.37-.37Z"/><path class="cls-1" d="M185.2,96.46v-3h-.4a.34.34,0,0,1-.33-.32.33.33,0,0,1,.33-.33h.4V91.65a.36.36,0,0,1,.36-.37.38.38,0,0,1,.37.37v1.17h1.28a.34.34,0,0,1,.34.33.33.33,0,0,1-.34.32h-1.28v2.9a.73.73,0,0,0,.83.82,2,2,0,0,0,.45-.07.31.31,0,0,1,.11.61,1.8,1.8,0,0,1-.73.13A1.26,1.26,0,0,1,185.2,96.46Z"/><path class="cls-1" d="M188.81,91.1a.37.37,0,1,1,.73,0v2.58a1.87,1.87,0,0,1,1.7-1,1.81,1.81,0,0,1,1.9,2v2.75a.37.37,0,1,1-.73,0V94.87a1.33,1.33,0,0,0-1.37-1.5,1.46,1.46,0,0,0-1.49,1.55v2.51a.35.35,0,0,1-.36.37.36.36,0,0,1-.37-.37V91.1Z"/><path class="cls-1" d="M194.41,95.32v0a2.57,2.57,0,0,1,4.36-1.87.34.34,0,0,1,.12.26.35.35,0,0,1-.36.35.37.37,0,0,1-.24-.09,1.89,1.89,0,0,0-1.35-.59,1.82,1.82,0,0,0-1.77,1.92v0A1.86,1.86,0,0,0,197,97.23a2,2,0,0,0,1.38-.6.3.3,0,0,1,.21-.1.35.35,0,0,1,.34.34.33.33,0,0,1-.1.23,2.5,2.5,0,0,1-1.87.8A2.56,2.56,0,0,1,194.41,95.32Z"/><path class="cls-1" d="M199.81,96.33v0c0-1,.86-1.6,2.12-1.6a5.41,5.41,0,0,1,1.52.21v-.17c0-.89-.55-1.35-1.48-1.35a3.1,3.1,0,0,0-1.28.28l-.13,0a.33.33,0,0,1-.33-.32.36.36,0,0,1,.2-.31,3.94,3.94,0,0,1,1.62-.34,2.14,2.14,0,0,1,1.6.55,1.94,1.94,0,0,1,.51,1.45v2.71a.35.35,0,0,1-.36.36.34.34,0,0,1-.35-.35V97a2.18,2.18,0,0,1-1.79.85A1.64,1.64,0,0,1,199.81,96.33Zm3.66-.38v-.48a5,5,0,0,0-1.46-.21c-.93,0-1.45.4-1.45,1v0c0,.62.57,1,1.25,1A1.51,1.51,0,0,0,203.47,96Z"/><path class="cls-1" d="M205.74,93.14a.37.37,0,0,1,.36-.37.37.37,0,0,1,.38.37v.93a2,2,0,0,1,1.71-1.32.35.35,0,0,1,.36.37.36.36,0,0,1-.33.37,2,2,0,0,0-1.74,2.26v1.69a.37.37,0,1,1-.74,0v-4.3Z"/><path class="cls-1" d="M211.58,97.89a2.46,2.46,0,0,1-2.47-2.58v0a2.45,2.45,0,0,1,2.38-2.58,2.33,2.33,0,0,1,2.3,2.51.35.35,0,0,1-.34.35h-3.59a1.74,1.74,0,0,0,1.74,1.68,2.07,2.07,0,0,0,1.43-.57.31.31,0,0,1,.21-.09.32.32,0,0,1,.33.32.31.31,0,0,1-.12.24A2.56,2.56,0,0,1,211.58,97.89ZM213,95a1.64,1.64,0,0,0-1.58-1.69A1.71,1.71,0,0,0,209.85,95Z"/><path class="cls-1" d="M218.08,91.45a.38.38,0,0,1,.37-.38h2.14c1.51,0,2.51.81,2.51,2.13v0c0,1.45-1.21,2.2-2.64,2.2h-1.63v2a.38.38,0,1,1-.75,0v-6Zm2.42,3.26c1.11,0,1.84-.59,1.84-1.48v0c0-1-.72-1.46-1.8-1.46h-1.7v3h1.66Z"/><path class="cls-1" d="M224.43,91.1a.37.37,0,1,1,.73,0v6.35a.35.35,0,0,1-.36.37.36.36,0,0,1-.37-.37Z"/><path class="cls-1" d="M226.51,96.33v0c0-1,.86-1.6,2.12-1.6a5.54,5.54,0,0,1,1.53.21v-.17c0-.89-.55-1.35-1.48-1.35a3.1,3.1,0,0,0-1.28.28l-.13,0a.33.33,0,0,1-.33-.32.36.36,0,0,1,.2-.31,3.94,3.94,0,0,1,1.62-.34,2.14,2.14,0,0,1,1.6.55,1.94,1.94,0,0,1,.51,1.45v2.71a.34.34,0,0,1-.35.36.34.34,0,0,1-.35-.35V97a2.18,2.18,0,0,1-1.79.85A1.65,1.65,0,0,1,226.51,96.33Zm3.65-.38v-.48a5,5,0,0,0-1.46-.21c-.93,0-1.45.4-1.45,1v0c0,.62.58,1,1.25,1A1.51,1.51,0,0,0,230.16,96Z"/><path class="cls-1" d="M232.64,96.46v-3h-.4a.34.34,0,0,1-.33-.32.33.33,0,0,1,.33-.33h.4V91.65a.36.36,0,0,1,.36-.37.38.38,0,0,1,.37.37v1.17h1.28a.34.34,0,0,1,.34.33.33.33,0,0,1-.34.32h-1.28v2.9a.73.73,0,0,0,.83.82,2,2,0,0,0,.45-.07.31.31,0,0,1,.11.61,1.8,1.8,0,0,1-.73.13A1.26,1.26,0,0,1,232.64,96.46Z"/><path class="cls-1" d="M236.54,93.47h-.4a.32.32,0,0,1-.32-.32.32.32,0,0,1,.32-.32h.4V92.4a1.71,1.71,0,0,1,.43-1.27,1.45,1.45,0,0,1,1.06-.38,2.35,2.35,0,0,1,.58.06.33.33,0,0,1,.27.32.32.32,0,0,1-.36.32,2.43,2.43,0,0,0-.4,0c-.58,0-.86.35-.86,1v.4h1.28a.31.31,0,0,1,.32.32.32.32,0,0,1-.32.32h-1.28v4a.36.36,0,0,1-.36.37.37.37,0,0,1-.37-.37v-4Z"/><path class="cls-1" d="M239.37,95.32v0a2.59,2.59,0,0,1,5.17,0v0a2.57,2.57,0,0,1-2.6,2.59A2.54,2.54,0,0,1,239.37,95.32Zm4.41,0v0a1.88,1.88,0,0,0-1.84-1.94,1.83,1.83,0,0,0-1.81,1.92v0A1.87,1.87,0,0,0,242,97.23,1.83,1.83,0,0,0,243.78,95.32Z"/><path class="cls-1" d="M245.87,93.14a.37.37,0,0,1,.36-.37.36.36,0,0,1,.37.37v.93a2.06,2.06,0,0,1,1.71-1.32.36.36,0,0,1,.37.37.36.36,0,0,1-.33.37,2,2,0,0,0-1.74,2.26v1.69a.37.37,0,1,1-.73,0v-4.3Z"/><path class="cls-1" d="M249.76,93.14a.37.37,0,0,1,.36-.37.36.36,0,0,1,.37.37v.51a1.82,1.82,0,0,1,1.6-.94,1.67,1.67,0,0,1,1.59,1,2,2,0,0,1,1.74-1,1.78,1.78,0,0,1,1.84,2v2.74a.37.37,0,1,1-.73,0V94.87c0-1-.48-1.5-1.28-1.5a1.38,1.38,0,0,0-1.36,1.53v2.53a.37.37,0,1,1-.73,0V94.84c0-.93-.49-1.48-1.28-1.48a1.43,1.43,0,0,0-1.38,1.56v2.5a.35.35,0,0,1-.36.37.36.36,0,0,1-.37-.37V93.14Z"/><path class="cls-1" d="M284.68,68.17a2.74,2.74,0,0,1,2-.79,2.89,2.89,0,0,1,2,4.87,2.74,2.74,0,0,1-2,.79,2.69,2.69,0,0,1-2-.79,3.07,3.07,0,0,1,0-4.08Zm.24,3.86a2.35,2.35,0,0,0,1.77.69,2.38,2.38,0,0,0,1.79-.69,2.9,2.9,0,0,0,0-3.66,2.41,2.41,0,0,0-1.79-.68,2.37,2.37,0,0,0-1.77.68,2.56,2.56,0,0,0-.66,1.82A2.59,2.59,0,0,0,284.92,72Zm.64-3.74h1.21a1.36,1.36,0,0,1,1,.31.94.94,0,0,1,.34.74,1.16,1.16,0,0,1-.24.73,1.09,1.09,0,0,1-.73.37l1,1.54h-.6l-1-1.52H286V72h-.48V68.29Zm.48.38v1.41h.73c.52,0,.79-.24.79-.71s-.27-.71-.79-.71H286Z"/><rect class="cls-1" x="116.98" y="65.59" width="0.85" height="31.3"/><path class="cls-2" d="M75.81,77.12c-2.11-3-4.09-6-6.19-9-2.33-3.28-4.83-5.08-7.41-5.82a8.5,8.5,0,0,0-4.76,0c-2.57.74-5.08,2.54-7.41,5.82-2.1,3-4.09,6-6.19,9-4.18,5.84-8.48,11.5-16.37,10,.48.64.7,1,.86,1.24,7.66,11,14,13.9,22.8,2,3-4,5.83-8.06,8.69-12.14,2.87,4.08,5.75,8.14,8.7,12.14,8.82,11.95,15.13,9,22.8-2,.16-.23.38-.61.86-1.24C84.29,88.61,80,83,75.81,77.12Z"/><path class="cls-3" d="M26.4,85.75c5.9,1.25,9.7-1,13.12-5l-.23-.2c-4-5.6-5.19-8-9.56-13C25,62.24,19,62.81,13.89,68.32c2.09,3.48,7.37,10,9.56,13.5Z"/><path class="cls-3" d="M93.12,85.75c-5.9,1.25-9.7-1-13.12-5l.23-.2c4-5.6,5.19-8,9.56-13,4.75-5.4,10.73-4.83,15.85.68-2.09,3.48-7.37,10-9.56,13.5Z"/></svg>