<svg xmlns="http://www.w3.org/2000/svg" width="275.6" height="35.935" viewBox="0 0 275.6 35.935"><defs><style>.a,.b{fill:#4294ca;}.b,.c{fill-rule:evenodd;}.c{fill:#4ca585;}</style></defs><g transform="translate(360.8 -62)"><path class="a" d="M-225.6,65.6h3.2l-4.2,14.7H-230l-2.8-10.2-2.9,10.2h-3.4l-4.2-14.7h3.1l2.8,11.3,3-11.3h3.3l2.8,11.2Z"/><path class="a" d="M-215.6,80.4a5.654,5.654,0,0,1-4.1-1.6,5.968,5.968,0,0,1-1.6-4.4,5.585,5.585,0,0,1,1.6-4.3,5.652,5.652,0,0,1,4.2-1.6,5.652,5.652,0,0,1,4.2,1.6,5.652,5.652,0,0,1,1.6,4.2,3.749,3.749,0,0,1-.1,1.1h-8.5a3.02,3.02,0,0,0,.8,1.8,2.489,2.489,0,0,0,1.9.7,2.453,2.453,0,0,0,2.3-1.3h3.2a4.849,4.849,0,0,1-2,2.7A6.062,6.062,0,0,1-215.6,80.4Zm1.9-8.8a2.64,2.64,0,0,0-1.9-.7,2.64,2.64,0,0,0-1.9.7,3.1,3.1,0,0,0-.9,1.9h5.5A2.561,2.561,0,0,0-213.7,71.6Z"/><path class="a" d="M-202.5,80.4a5.654,5.654,0,0,1-4.1-1.6,5.968,5.968,0,0,1-1.6-4.4,5.585,5.585,0,0,1,1.6-4.3,5.652,5.652,0,0,1,4.2-1.6,5.652,5.652,0,0,1,4.2,1.6,5.652,5.652,0,0,1,1.6,4.2,3.749,3.749,0,0,1-.1,1.1h-8.5a3.02,3.02,0,0,0,.8,1.8,2.489,2.489,0,0,0,1.9.7,2.453,2.453,0,0,0,2.3-1.3h3.2a5.175,5.175,0,0,1-1.9,2.7A6.379,6.379,0,0,1-202.5,80.4Zm1.9-8.8a2.64,2.64,0,0,0-1.9-.7,2.64,2.64,0,0,0-1.9.7,3.1,3.1,0,0,0-.9,1.9h5.5A2.561,2.561,0,0,0-200.6,71.6Z"/><path class="a" d="M-192.9,78.3A7.08,7.08,0,0,1-195,73a7.237,7.237,0,0,1,2.1-5.3,7.17,7.17,0,0,1,5.2-2.1,7.674,7.674,0,0,1,4,1,6.127,6.127,0,0,1,2.6,2.9h-1.8a4.592,4.592,0,0,0-1.9-2,5.426,5.426,0,0,0-2.9-.7,5.728,5.728,0,0,0-4.2,1.7,6.033,6.033,0,0,0-1.7,4.4,6.033,6.033,0,0,0,1.7,4.4,5.728,5.728,0,0,0,4.2,1.7,5.664,5.664,0,0,0,2.9-.7,4.1,4.1,0,0,0,1.9-2h1.8a6.173,6.173,0,0,1-2.6,2.9,7.674,7.674,0,0,1-4,1A6.187,6.187,0,0,1-192.9,78.3Z"/><path class="a" d="M-173.1,80.4a5.584,5.584,0,0,1-4-1.6,5.925,5.925,0,0,1-1.5-4.3,6.147,6.147,0,0,1,1.6-4.3,5.577,5.577,0,0,1,4.1-1.6,6.006,6.006,0,0,1,4.1,1.6,5.732,5.732,0,0,1,1.6,4.3,5.8,5.8,0,0,1-1.7,4.3A5.809,5.809,0,0,1-173.1,80.4Zm0-1.1A4.158,4.158,0,0,0-170,78a4.6,4.6,0,0,0,1.3-3.5,4.958,4.958,0,0,0-1.2-3.5,3.8,3.8,0,0,0-3-1.3,3.8,3.8,0,0,0-3,1.3,4.958,4.958,0,0,0-1.2,3.5A5.235,5.235,0,0,0-176,78,3.775,3.775,0,0,0-173.1,79.3Z"/><path class="a" d="M-163.3,68.7v1.9a3.993,3.993,0,0,1,3.8-2.1,4.751,4.751,0,0,1,2.4.6,3.754,3.754,0,0,1,1.6,1.9,5.194,5.194,0,0,1,1.7-1.9,5.2,5.2,0,0,1,2.5-.7,4.542,4.542,0,0,1,3.2,1.2,4.546,4.546,0,0,1,1.3,3.6V80h-1.4V73.4a4.2,4.2,0,0,0-.9-2.9,3.04,3.04,0,0,0-2.5-1,3.04,3.04,0,0,0-2.5,1,4.2,4.2,0,0,0-.9,2.9V80h-1.4V73.4a4.2,4.2,0,0,0-.9-2.9,3.04,3.04,0,0,0-2.5-1,3.04,3.04,0,0,0-2.5,1,4.2,4.2,0,0,0-.9,2.9V80h-1.5V68.7Z"/><path class="a" d="M-137.7,68.5a5.351,5.351,0,0,1,4,1.6,6.074,6.074,0,0,1,1.6,4.2,5.886,5.886,0,0,1-1.6,4.3,5.439,5.439,0,0,1-4,1.7,5.029,5.029,0,0,1-2.7-.8,4.939,4.939,0,0,1-1.8-2v7.9h-1.5V68.7h1.5v2.5a4.689,4.689,0,0,1,1.8-1.9A4.551,4.551,0,0,1-137.7,68.5Zm-.2,10.7a3.8,3.8,0,0,0,3-1.3,4.871,4.871,0,0,0,1.2-3.4,4.871,4.871,0,0,0-1.2-3.4,4.07,4.07,0,0,0-3-1.2,3.8,3.8,0,0,0-3,1.3,4.871,4.871,0,0,0-1.2,3.4,4.871,4.871,0,0,0,1.2,3.4A4.505,4.505,0,0,0-137.9,79.2Z"/><path class="a" d="M-128.9,78.7a5.886,5.886,0,0,1-1.6-4.3,5.5,5.5,0,0,1,1.6-4.2,5.2,5.2,0,0,1,4-1.6,4.3,4.3,0,0,1,2.7.8,5.409,5.409,0,0,1,1.8,1.9V68.8h1.5V80.3h-1.5V77.8a5.673,5.673,0,0,1-1.8,2,5.029,5.029,0,0,1-2.7.8A6.057,6.057,0,0,1-128.9,78.7Zm7.2-.8a4.871,4.871,0,0,0,1.2-3.4,4.871,4.871,0,0,0-1.2-3.4,3.8,3.8,0,0,0-3-1.3,4.07,4.07,0,0,0-3,1.2,4.547,4.547,0,0,0-1.2,3.4,4.7,4.7,0,0,0,1.2,3.4,4.157,4.157,0,0,0,3,1.3A3.72,3.72,0,0,0-121.7,77.9Z"/><path class="a" d="M-114.3,68.7v1.9a3.993,3.993,0,0,1,3.8-2.1,4.542,4.542,0,0,1,3.2,1.2,4.546,4.546,0,0,1,1.3,3.6v6.8h-1.4V73.5a4.2,4.2,0,0,0-.9-2.9,3.04,3.04,0,0,0-2.5-1,3.04,3.04,0,0,0-2.5,1,4.2,4.2,0,0,0-.9,2.9v6.6h-1.5V68.7Z"/><path class="a" d="M-99.7,80.1l-4.6-11.3h1.6l3.8,9.8,3.8-9.8h1.5l-6.8,16.8h-1.5Z"/><path class="a" d="M-210.7,91.4a.43.43,0,0,1,.4-.4.43.43,0,0,1,.4.4V94h3.9V91.4a.43.43,0,0,1,.4-.4.43.43,0,0,1,.4.4v6a.43.43,0,0,1-.4.4.43.43,0,0,1-.4-.4V94.7h-3.9v2.7a.43.43,0,0,1-.4.4.43.43,0,0,1-.4-.4Z"/><path class="a" d="M-201.3,97.9a2.443,2.443,0,0,1-2.5-2.6h0a2.48,2.48,0,0,1,2.4-2.6,2.311,2.311,0,0,1,2.3,2.5.446.446,0,0,1-.3.4H-203a1.744,1.744,0,0,0,1.7,1.7,1.678,1.678,0,0,0,1.4-.6c.1-.1.1-.1.2-.1a.265.265,0,0,1,.3.3c0,.1,0,.2-.1.2A2.2,2.2,0,0,1-201.3,97.9Zm1.4-2.9c-.1-.9-.6-1.7-1.6-1.7a1.667,1.667,0,0,0-1.6,1.7Z"/><path class="a" d="M-198.2,96.3h0c0-1.1.9-1.6,2.1-1.6a6.052,6.052,0,0,1,1.5.2v-.2a1.342,1.342,0,0,0-1.5-1.4,2.768,2.768,0,0,0-1.3.3h-.1a.265.265,0,0,1-.3-.3c0-.1.1-.3.2-.3a4.146,4.146,0,0,1,1.6-.3,2.111,2.111,0,0,1,1.6.6,1.978,1.978,0,0,1,.5,1.4v2.7a.366.366,0,0,1-.4.4.366.366,0,0,1-.4-.4V97a2.41,2.41,0,0,1-1.8.9A1.6,1.6,0,0,1-198.2,96.3Zm3.6-.4v-.5a6.052,6.052,0,0,0-1.5-.2c-.9,0-1.4.4-1.4,1h0a1.12,1.12,0,0,0,1.2,1A1.4,1.4,0,0,0-194.6,95.9Z"/><path class="a" d="M-192.2,91.1a.43.43,0,0,1,.4-.4.43.43,0,0,1,.4.4v6.4a.366.366,0,0,1-.4.4.366.366,0,0,1-.4-.4Z"/><path class="a" d="M-189.5,96.5v-3h-.4a.265.265,0,0,1-.3-.3.265.265,0,0,1,.3-.3h.4V91.7a.366.366,0,0,1,.4-.4.43.43,0,0,1,.4.4v1.2h1.3a.265.265,0,0,1,.3.3.265.265,0,0,1-.3.3h-1.3v2.9c0,.6.3.8.8.8a.584.584,0,0,0,.4-.1.265.265,0,0,1,.3.3c0,.1-.1.2-.2.3a1.483,1.483,0,0,1-.7.1A1.152,1.152,0,0,1-189.5,96.5Z"/><path class="a" d="M-185.9,91.1a.43.43,0,0,1,.4-.4.43.43,0,0,1,.4.4v2.6a1.886,1.886,0,0,1,1.7-1,1.813,1.813,0,0,1,1.9,2v2.8a.43.43,0,0,1-.4.4.43.43,0,0,1-.4-.4V94.9a1.342,1.342,0,0,0-1.4-1.5,1.446,1.446,0,0,0-1.5,1.6v2.5a.366.366,0,0,1-.4.4.366.366,0,0,1-.4-.4l.1-6.4Z"/><path class="a" d="M-180.3,95.3h0a2.562,2.562,0,0,1,2.5-2.6,2.481,2.481,0,0,1,1.8.7c.1.1.1.1.1.3a.43.43,0,0,1-.4.4c-.1,0-.2,0-.2-.1a2.246,2.246,0,0,0-1.4-.6,1.88,1.88,0,0,0-1.8,1.9h0a1.817,1.817,0,0,0,1.8,1.9,2.246,2.246,0,0,0,1.4-.6c.1-.1.1-.1.2-.1a.319.319,0,0,1,.3.3c0,.1,0,.2-.1.2a2.407,2.407,0,0,1-1.9.8A2.376,2.376,0,0,1-180.3,95.3Z"/><path class="a" d="M-174.9,96.3h0c0-1.1.9-1.6,2.1-1.6a6.052,6.052,0,0,1,1.5.2v-.2a1.342,1.342,0,0,0-1.5-1.4,2.768,2.768,0,0,0-1.3.3h-.1a.265.265,0,0,1-.3-.3c0-.1.1-.3.2-.3a4.146,4.146,0,0,1,1.6-.3,2.111,2.111,0,0,1,1.6.6,1.978,1.978,0,0,1,.5,1.4v2.7a.366.366,0,0,1-.4.4c-.3,0-.4-.1-.4-.4V97a2.41,2.41,0,0,1-1.8.9A1.652,1.652,0,0,1-174.9,96.3Zm3.7-.4v-.5a6.052,6.052,0,0,0-1.5-.2c-.9,0-1.4.4-1.4,1h0a1.12,1.12,0,0,0,1.2,1A1.444,1.444,0,0,0-171.2,95.9Z"/><path class="a" d="M-168.9,93.1a.43.43,0,0,1,.4-.4.43.43,0,0,1,.4.4V94a2.136,2.136,0,0,1,1.7-1.3.43.43,0,0,1,.4.4c0,.2-.1.3-.3.4-1,.1-1.7.8-1.7,2.3v1.7a.366.366,0,0,1-.4.4.43.43,0,0,1-.4-.4l-.1-4.4Z"/><path class="a" d="M-163.1,97.9a2.443,2.443,0,0,1-2.5-2.6h0a2.48,2.48,0,0,1,2.4-2.6,2.311,2.311,0,0,1,2.3,2.5.446.446,0,0,1-.3.4h-3.6a1.744,1.744,0,0,0,1.7,1.7,1.678,1.678,0,0,0,1.4-.6c.1-.1.1-.1.2-.1a.265.265,0,0,1,.3.3c0,.1,0,.2-.1.2A2.2,2.2,0,0,1-163.1,97.9Zm1.5-2.9c-.1-.9-.6-1.7-1.6-1.7a1.667,1.667,0,0,0-1.6,1.7Z"/><path class="a" d="M-156.6,91.4a.43.43,0,0,1,.4-.4h2.1c1.5,0,2.5.8,2.5,2.1h0a2.328,2.328,0,0,1-2.6,2.2h-1.6v2a.43.43,0,0,1-.4.4.43.43,0,0,1-.4-.4V91.4Zm2.4,3.3c1.1,0,1.8-.6,1.8-1.5h0c0-1-.7-1.5-1.8-1.5h-1.7v2.9l1.7.1Z"/><path class="a" d="M-150.3,91.1a.43.43,0,0,1,.4-.4.43.43,0,0,1,.4.4v6.4a.366.366,0,0,1-.4.4.366.366,0,0,1-.4-.4Z"/><path class="a" d="M-148.2,96.3h0c0-1.1.9-1.6,2.1-1.6a6.052,6.052,0,0,1,1.5.2v-.2a1.342,1.342,0,0,0-1.5-1.4,2.768,2.768,0,0,0-1.3.3h-.1a.265.265,0,0,1-.3-.3c0-.1.1-.3.2-.3a4.146,4.146,0,0,1,1.6-.3,2.111,2.111,0,0,1,1.6.6,1.978,1.978,0,0,1,.5,1.4v2.7a.366.366,0,0,1-.4.4.366.366,0,0,1-.4-.4V97a2.41,2.41,0,0,1-1.8.9A1.652,1.652,0,0,1-148.2,96.3Zm3.7-.4v-.5a6.052,6.052,0,0,0-1.5-.2c-.9,0-1.4.4-1.4,1h0a1.12,1.12,0,0,0,1.2,1A1.444,1.444,0,0,0-144.5,95.9Z"/><path class="a" d="M-142.1,96.5v-3h-.4a.265.265,0,0,1-.3-.3.265.265,0,0,1,.3-.3h.4V91.7a.366.366,0,0,1,.4-.4.43.43,0,0,1,.4.4v1.2h1.3a.265.265,0,0,1,.3.3.265.265,0,0,1-.3.3h-1.3v2.9c0,.6.3.8.8.8a.584.584,0,0,0,.4-.1.265.265,0,0,1,.3.3c0,.1-.1.2-.2.3a1.483,1.483,0,0,1-.7.1A1.184,1.184,0,0,1-142.1,96.5Z"/><path class="a" d="M-138.1,93.5h-.4a.265.265,0,0,1-.3-.3.265.265,0,0,1,.3-.3h.4v-.4a1.7,1.7,0,0,1,.4-1.3,1.6,1.6,0,0,1,1.1-.4,1.268,1.268,0,0,1,.6.1.319.319,0,0,1,.3.3c0,.2-.2.3-.4.3-.1,0-.3-.1-.4-.1-.6,0-.9.4-.9,1.1v.4h1.3a.265.265,0,0,1,.3.3.265.265,0,0,1-.3.3h-1.3v4a.366.366,0,0,1-.4.4.366.366,0,0,1-.4-.4l.1-4Z"/><path class="a" d="M-135.3,95.3h0a2.582,2.582,0,0,1,2.6-2.6,2.582,2.582,0,0,1,2.6,2.6h0a2.582,2.582,0,0,1-2.6,2.6A2.582,2.582,0,0,1-135.3,95.3Zm4.4,0h0a1.907,1.907,0,0,0-1.8-2,1.815,1.815,0,0,0-1.8,1.9h0a1.817,1.817,0,0,0,1.8,1.9A1.633,1.633,0,0,0-130.9,95.3Z"/><path class="a" d="M-128.8,93.1a.43.43,0,0,1,.4-.4.43.43,0,0,1,.4.4V94a2.136,2.136,0,0,1,1.7-1.3.43.43,0,0,1,.4.4c0,.2-.1.3-.3.4-1,.1-1.7.8-1.7,2.3v1.7a.366.366,0,0,1-.4.4.366.366,0,0,1-.4-.4l-.1-4.4Z"/><path class="a" d="M-124.9,93.1a.43.43,0,0,1,.4-.4.43.43,0,0,1,.4.4v.5a1.769,1.769,0,0,1,1.6-.9,1.676,1.676,0,0,1,1.6,1,1.824,1.824,0,0,1,1.7-1,1.791,1.791,0,0,1,1.8,2v2.7a.43.43,0,0,1-.4.4.43.43,0,0,1-.4-.4V94.8c0-1-.5-1.5-1.3-1.5a1.394,1.394,0,0,0-1.4,1.5v2.5a.43.43,0,0,1-.4.4.43.43,0,0,1-.4-.4V94.7a1.321,1.321,0,0,0-1.3-1.5,1.427,1.427,0,0,0-1.4,1.6v2.5a.43.43,0,0,1-.4.4.43.43,0,0,1-.4-.4l.3-4.2Z"/><path class="a" d="M-90,68.2a2.792,2.792,0,0,1,2-.8,2.792,2.792,0,0,1,2,.8,2.792,2.792,0,0,1,.8,2,2.792,2.792,0,0,1-.8,2,2.792,2.792,0,0,1-2,.8,2.792,2.792,0,0,1-2-.8,2.792,2.792,0,0,1-.8-2A2.792,2.792,0,0,1-90,68.2Zm.2,3.8a2.139,2.139,0,0,0,1.8.7,2.268,2.268,0,0,0,1.8-.7,2.875,2.875,0,0,0,.7-1.8,2.268,2.268,0,0,0-.7-1.8,2.481,2.481,0,0,0-1.8-.7,2.41,2.41,0,0,0-1.8.7,2.875,2.875,0,0,0-.7,1.8A2.979,2.979,0,0,0-89.8,72Zm.7-3.7h1.2a1.222,1.222,0,0,1,.9.3.908.908,0,0,1,.3.7,1.445,1.445,0,0,1-.2.7,1.612,1.612,0,0,1-.7.4l1,1.5h-.6l-1-1.5h-.5V72h-.5l.1-3.7Zm.4.4v1.4h.7c.5,0,.8-.2.8-.7s-.3-.7-.8-.7Z"/><rect class="a" width="0.9" height="31.3" transform="translate(-257.7 65.6)"/><path class="b" d="M-298.9,77.1c-2.1-2.9-4.1-6-6.2-9-2.3-3.3-4.8-5.1-7.4-5.8a9.862,9.862,0,0,0-2.4-.3,9.862,9.862,0,0,0-2.4.3c-2.6.7-5.1,2.5-7.4,5.8-2.1,2.9-4.1,6-6.2,9-4.2,5.8-8.5,11.5-16.4,10,.5.6.7,1,.9,1.2,7.7,10.9,14,13.9,22.8,1.9,3-4,5.8-8.1,8.7-12.1,2.9,4.1,5.8,8.1,8.7,12.1,8.8,11.9,15.1,9,22.8-1.9.2-.2.4-.6.9-1.2C-290.4,88.6-294.7,83-298.9,77.1Z"/><path class="c" d="M-348.3,85.8c5.9,1.2,9.7-1,13.1-4.9l-.2-.2c-4-5.6-5.2-8-9.6-13-4.8-5.4-10.7-4.8-15.8.7,2.1,3.5,7.4,10,9.6,13.5Z"/><path class="c" d="M-281.6,85.8c-5.9,1.2-9.7-1-13.1-4.9l.2-.2c4-5.6,5.2-8,9.6-13,4.8-5.4,10.7-4.8,15.9.7-2.1,3.5-7.4,10-9.6,13.5Z"/></g></svg>